M48
;GenerationSoftware,Autodesk,EAGLE,8.7.0*%
;CreationDate,2018-05-30T02:05:40Z*%
FMAT,2
ICI,OFF
METRIC,TZ,000.000
T6C0.350
T5C0.500
T4C0.914
T3C1.000
T2C1.500
T1C2.750
%
G90
M71
T1
X61500Y3500
X61500Y26500
X3500Y26500
X3500Y3500
T2
X61590Y11830
X61590Y8330
T3
X26150Y27770
X26150Y25230
X8370Y25230
X28690Y27770
X23610Y27770
X23610Y25230
X21070Y27770
X21070Y25230
X18530Y27770
X18530Y25230
X15990Y27770
X15990Y25230
X13450Y27770
X13450Y25230
X10910Y27770
X10910Y25230
X8370Y27770
X61710Y21150
X61710Y18610
X61710Y16070
X43930Y25230
X28690Y25230
X56630Y27770
X56630Y25230
X54090Y27770
X54090Y25230
X51550Y27770
X51550Y25230
X49010Y27770
X49010Y25230
X46470Y27770
X46470Y25230
X43930Y27770
X41390Y27770
X41390Y25230
X38850Y27770
X38850Y25230
X36310Y27770
X36310Y25230
X33770Y27770
X33770Y25230
X31230Y27770
X31230Y25230
T4
X12280Y1940
X10280Y1940
X8280Y1940
X14280Y1940
T5
X42280Y8400
X44747Y17000
X47750Y23250
X36130Y12350
X35408Y10652
X27840Y3610
X39000Y6500
T6
X33730Y9060
X35000Y13130
X34200Y6110
X56830Y19040
X50020Y6810
X33880Y22340
X18930Y22350
X45140Y8600
X51910Y11740
X44180Y10570
X38010Y11590
X36500Y8590
X26180Y3670
X24340Y2030
X18570Y2010
X16060Y5830
X16480Y13810
X15480Y13810
X14480Y13810
X13480Y13810
X9680Y13910
X8680Y14010
X20000Y5000
X18500Y20500
X34000Y17500
X36000Y17500
X55500Y23000
X38500Y17822
X56500Y23000
X37484Y17878
X18580Y5000
X34060Y18456
X36550Y18450
X17500Y20500
X20558Y18000
X37000Y15922
X37500Y13000
X46000Y3500
X24680Y17850
X30500Y15400
X32000Y15400
X37500Y15000
X37052Y20301
X34080Y20770
X25429Y19071
X41000Y21500
X27000Y19678
X26230Y18520
X41500Y18500
X39250Y11870
X36390Y5300
X38500Y9500
X36390Y6670
X52620Y17140
X19000Y18000
X51500Y17000
X19880Y18780
X17778Y2822
X16222Y3322
X11260Y3770
X22500Y4500
X18500Y3500
X22956Y3444
X23770Y19450
X23000Y20128
X11000Y4822
X17000Y4822
X53000Y2500
X47790Y6220
X19530Y20100
X53730Y11030
X44720Y6370
X35870Y1750
X28870Y2750
X57370Y15750
X58900Y23900
X35900Y15900
X40600Y17900
X46170Y23280
X59030Y21990
X50740Y21520
X10680Y13910
X44760Y12340
X50510Y14180
X47100Y1230
X54060Y2610
X56320Y8390
X12060Y5830
X15340Y16410
X14410Y16420
X13480Y16910
X12480Y16910
X11480Y16910
X10480Y16910
X9480Y16910
X8480Y16910
X7480Y16910
X6480Y16910
X5480Y16910
X5380Y13910
X6480Y13910
X7580Y14010
M30