G04 EAGLE Gerber X2 export*
%TF.Part,Single*%
%TF.FileFunction,Soldermask,Top,1*%
%TF.FilePolarity,Negative*%
%TF.GenerationSoftware,Autodesk,EAGLE,8.7.0*%
%TF.CreationDate,2018-05-30T02:05:41Z*%
G75*
%MOMM*%
%FSLAX34Y34*%
%LPD*%
%AMOC8*
5,1,8,0,0,1.08239X$1,22.5*%
G01*
%ADD10C,0.140637*%
%ADD11R,1.800000X1.800000*%
%ADD12R,1.003200X1.003200*%
%ADD13R,1.981200X1.981200*%
%ADD14C,1.981200*%
%ADD15C,2.953200*%
%ADD16R,4.267200X2.235200*%
%ADD17R,4.267200X1.727200*%
%ADD18R,1.503200X1.703200*%
%ADD19R,0.753200X1.403200*%
%ADD20R,1.625600X1.625600*%
%ADD21C,1.625600*%
%ADD22R,0.653200X1.903200*%
%ADD23R,1.678200X2.303200*%
%ADD24R,2.578200X2.103200*%
%ADD25R,1.203200X1.603200*%
%ADD26R,0.753200X1.303200*%
%ADD27R,0.603200X1.403200*%
%ADD28C,2.743200*%
%ADD29R,1.102200X0.623200*%
%ADD30C,0.225959*%
%ADD31C,0.360959*%
%ADD32C,0.120638*%
%ADD33R,1.711200X1.711200*%
%ADD34C,1.711200*%
%ADD35C,0.959600*%
%ADD36C,1.109600*%

G36*
X264342Y78773D02*
X264342Y78773D01*
X264384Y78771D01*
X264451Y78793D01*
X264521Y78805D01*
X264557Y78827D01*
X264598Y78840D01*
X264671Y78894D01*
X264714Y78920D01*
X264727Y78936D01*
X264748Y78952D01*
X270248Y84452D01*
X270273Y84486D01*
X270304Y84515D01*
X270336Y84578D01*
X270377Y84636D01*
X270387Y84677D01*
X270407Y84715D01*
X270420Y84804D01*
X270433Y84853D01*
X270430Y84874D01*
X270434Y84900D01*
X270434Y96400D01*
X270423Y96465D01*
X270421Y96531D01*
X270403Y96574D01*
X270395Y96621D01*
X270361Y96678D01*
X270336Y96738D01*
X270305Y96773D01*
X270280Y96814D01*
X270229Y96856D01*
X270185Y96904D01*
X270143Y96926D01*
X270106Y96955D01*
X270044Y96976D01*
X269985Y97007D01*
X269931Y97015D01*
X269894Y97027D01*
X269854Y97026D01*
X269800Y97034D01*
X252800Y97034D01*
X252735Y97023D01*
X252669Y97021D01*
X252626Y97003D01*
X252579Y96995D01*
X252522Y96961D01*
X252462Y96936D01*
X252427Y96905D01*
X252386Y96880D01*
X252345Y96829D01*
X252296Y96785D01*
X252274Y96743D01*
X252245Y96706D01*
X252224Y96644D01*
X252193Y96585D01*
X252185Y96531D01*
X252173Y96494D01*
X252174Y96454D01*
X252166Y96400D01*
X252166Y79400D01*
X252177Y79335D01*
X252179Y79269D01*
X252197Y79226D01*
X252205Y79179D01*
X252239Y79122D01*
X252264Y79062D01*
X252295Y79027D01*
X252320Y78986D01*
X252371Y78945D01*
X252415Y78896D01*
X252457Y78874D01*
X252494Y78845D01*
X252556Y78824D01*
X252615Y78793D01*
X252669Y78785D01*
X252706Y78773D01*
X252746Y78774D01*
X252800Y78766D01*
X264300Y78766D01*
X264342Y78773D01*
G37*
G36*
X394808Y207402D02*
X394808Y207402D01*
X394817Y207401D01*
X394905Y207422D01*
X394995Y207440D01*
X395002Y207445D01*
X395010Y207447D01*
X395083Y207501D01*
X395159Y207553D01*
X395163Y207560D01*
X395170Y207565D01*
X395217Y207643D01*
X395266Y207720D01*
X395267Y207729D01*
X395272Y207736D01*
X395299Y207900D01*
X395299Y213900D01*
X395298Y213904D01*
X395299Y213908D01*
X395298Y213911D01*
X395299Y213917D01*
X395278Y214005D01*
X395260Y214095D01*
X395255Y214102D01*
X395253Y214110D01*
X395199Y214183D01*
X395147Y214259D01*
X395140Y214263D01*
X395135Y214270D01*
X395057Y214317D01*
X394980Y214366D01*
X394971Y214367D01*
X394964Y214372D01*
X394800Y214399D01*
X384800Y214399D01*
X384792Y214398D01*
X384783Y214399D01*
X384695Y214378D01*
X384605Y214360D01*
X384598Y214355D01*
X384590Y214353D01*
X384517Y214299D01*
X384441Y214247D01*
X384437Y214240D01*
X384430Y214235D01*
X384383Y214157D01*
X384334Y214080D01*
X384333Y214071D01*
X384328Y214064D01*
X384301Y213900D01*
X384301Y207900D01*
X384302Y207892D01*
X384301Y207883D01*
X384322Y207795D01*
X384340Y207705D01*
X384345Y207698D01*
X384347Y207690D01*
X384401Y207617D01*
X384453Y207541D01*
X384460Y207537D01*
X384465Y207530D01*
X384543Y207483D01*
X384620Y207434D01*
X384629Y207433D01*
X384636Y207428D01*
X384800Y207401D01*
X394800Y207401D01*
X394808Y207402D01*
G37*
G36*
X394808Y199402D02*
X394808Y199402D01*
X394817Y199401D01*
X394905Y199422D01*
X394995Y199440D01*
X395002Y199445D01*
X395010Y199447D01*
X395083Y199501D01*
X395159Y199553D01*
X395163Y199560D01*
X395170Y199565D01*
X395217Y199643D01*
X395266Y199720D01*
X395267Y199729D01*
X395272Y199736D01*
X395299Y199900D01*
X395299Y205900D01*
X395298Y205904D01*
X395299Y205908D01*
X395298Y205911D01*
X395299Y205917D01*
X395278Y206005D01*
X395260Y206095D01*
X395255Y206102D01*
X395253Y206110D01*
X395199Y206183D01*
X395147Y206259D01*
X395140Y206263D01*
X395135Y206270D01*
X395057Y206317D01*
X394980Y206366D01*
X394971Y206367D01*
X394964Y206372D01*
X394800Y206399D01*
X384800Y206399D01*
X384792Y206398D01*
X384783Y206399D01*
X384695Y206378D01*
X384605Y206360D01*
X384598Y206355D01*
X384590Y206353D01*
X384517Y206299D01*
X384441Y206247D01*
X384437Y206240D01*
X384430Y206235D01*
X384383Y206157D01*
X384334Y206080D01*
X384333Y206071D01*
X384328Y206064D01*
X384301Y205900D01*
X384301Y199900D01*
X384302Y199892D01*
X384301Y199883D01*
X384322Y199795D01*
X384340Y199705D01*
X384345Y199698D01*
X384347Y199690D01*
X384401Y199617D01*
X384453Y199541D01*
X384460Y199537D01*
X384465Y199530D01*
X384543Y199483D01*
X384620Y199434D01*
X384629Y199433D01*
X384636Y199428D01*
X384800Y199401D01*
X394800Y199401D01*
X394808Y199402D01*
G37*
G36*
X392812Y191403D02*
X392812Y191403D01*
X392825Y191401D01*
X392909Y191423D01*
X392995Y191440D01*
X393005Y191448D01*
X393017Y191451D01*
X393153Y191547D01*
X395153Y193547D01*
X395154Y193549D01*
X395156Y193550D01*
X395161Y193558D01*
X395170Y193565D01*
X395215Y193640D01*
X395263Y193713D01*
X395265Y193725D01*
X395272Y193736D01*
X395299Y193900D01*
X395299Y197900D01*
X395298Y197904D01*
X395299Y197908D01*
X395298Y197911D01*
X395299Y197917D01*
X395278Y198005D01*
X395260Y198095D01*
X395255Y198102D01*
X395253Y198110D01*
X395199Y198183D01*
X395147Y198259D01*
X395140Y198263D01*
X395135Y198270D01*
X395057Y198317D01*
X394980Y198366D01*
X394971Y198367D01*
X394964Y198372D01*
X394800Y198399D01*
X384800Y198399D01*
X384792Y198398D01*
X384783Y198399D01*
X384695Y198378D01*
X384605Y198360D01*
X384598Y198355D01*
X384590Y198353D01*
X384517Y198299D01*
X384441Y198247D01*
X384437Y198240D01*
X384430Y198235D01*
X384383Y198157D01*
X384334Y198080D01*
X384333Y198071D01*
X384328Y198064D01*
X384301Y197900D01*
X384301Y191900D01*
X384302Y191892D01*
X384301Y191883D01*
X384322Y191795D01*
X384340Y191705D01*
X384345Y191698D01*
X384347Y191690D01*
X384401Y191617D01*
X384453Y191541D01*
X384460Y191537D01*
X384465Y191530D01*
X384543Y191483D01*
X384620Y191434D01*
X384629Y191433D01*
X384636Y191428D01*
X384800Y191401D01*
X392800Y191401D01*
X392812Y191403D01*
G37*
D10*
X285987Y113713D02*
X295613Y113713D01*
X295613Y108087D01*
X285987Y108087D01*
X285987Y113713D01*
X285987Y109492D02*
X295613Y109492D01*
X295613Y110897D02*
X285987Y110897D01*
X285987Y112302D02*
X295613Y112302D01*
X295613Y113707D02*
X285987Y113707D01*
X285987Y105713D02*
X295613Y105713D01*
X295613Y100087D01*
X285987Y100087D01*
X285987Y105713D01*
X285987Y101492D02*
X295613Y101492D01*
X295613Y102897D02*
X285987Y102897D01*
X285987Y104302D02*
X295613Y104302D01*
X295613Y105707D02*
X285987Y105707D01*
X285987Y97713D02*
X295613Y97713D01*
X295613Y92087D01*
X285987Y92087D01*
X285987Y97713D01*
X285987Y93492D02*
X295613Y93492D01*
X295613Y94897D02*
X285987Y94897D01*
X285987Y96302D02*
X295613Y96302D01*
X295613Y97707D02*
X285987Y97707D01*
X285987Y89713D02*
X295613Y89713D01*
X295613Y84087D01*
X285987Y84087D01*
X285987Y89713D01*
X285987Y85492D02*
X295613Y85492D01*
X295613Y86897D02*
X285987Y86897D01*
X285987Y88302D02*
X295613Y88302D01*
X295613Y89707D02*
X285987Y89707D01*
X285987Y81713D02*
X295613Y81713D01*
X295613Y76087D01*
X285987Y76087D01*
X285987Y81713D01*
X285987Y77492D02*
X295613Y77492D01*
X295613Y78897D02*
X285987Y78897D01*
X285987Y80302D02*
X295613Y80302D01*
X295613Y81707D02*
X285987Y81707D01*
X285987Y73713D02*
X295613Y73713D01*
X295613Y68087D01*
X285987Y68087D01*
X285987Y73713D01*
X285987Y69492D02*
X295613Y69492D01*
X295613Y70897D02*
X285987Y70897D01*
X285987Y72302D02*
X295613Y72302D01*
X295613Y73707D02*
X285987Y73707D01*
X285987Y121713D02*
X295613Y121713D01*
X295613Y116087D01*
X285987Y116087D01*
X285987Y121713D01*
X285987Y117492D02*
X295613Y117492D01*
X295613Y118897D02*
X285987Y118897D01*
X285987Y120302D02*
X295613Y120302D01*
X295613Y121707D02*
X285987Y121707D01*
X285987Y129713D02*
X295613Y129713D01*
X295613Y124087D01*
X285987Y124087D01*
X285987Y129713D01*
X285987Y125492D02*
X295613Y125492D01*
X295613Y126897D02*
X285987Y126897D01*
X285987Y128302D02*
X295613Y128302D01*
X295613Y129707D02*
X285987Y129707D01*
X285987Y137713D02*
X295613Y137713D01*
X295613Y132087D01*
X285987Y132087D01*
X285987Y137713D01*
X285987Y133492D02*
X295613Y133492D01*
X295613Y134897D02*
X285987Y134897D01*
X285987Y136302D02*
X295613Y136302D01*
X295613Y137707D02*
X285987Y137707D01*
X285987Y145713D02*
X295613Y145713D01*
X295613Y140087D01*
X285987Y140087D01*
X285987Y145713D01*
X285987Y141492D02*
X295613Y141492D01*
X295613Y142897D02*
X285987Y142897D01*
X285987Y144302D02*
X295613Y144302D01*
X295613Y145707D02*
X285987Y145707D01*
X285987Y153713D02*
X295613Y153713D01*
X295613Y148087D01*
X285987Y148087D01*
X285987Y153713D01*
X285987Y149492D02*
X295613Y149492D01*
X295613Y150897D02*
X285987Y150897D01*
X285987Y152302D02*
X295613Y152302D01*
X295613Y153707D02*
X285987Y153707D01*
X285987Y161713D02*
X295613Y161713D01*
X295613Y156087D01*
X285987Y156087D01*
X285987Y161713D01*
X285987Y157492D02*
X295613Y157492D01*
X295613Y158897D02*
X285987Y158897D01*
X285987Y160302D02*
X295613Y160302D01*
X295613Y161707D02*
X285987Y161707D01*
X235487Y162087D02*
X235487Y171713D01*
X241113Y171713D01*
X241113Y162087D01*
X235487Y162087D01*
X235487Y163492D02*
X241113Y163492D01*
X241113Y164897D02*
X235487Y164897D01*
X235487Y166302D02*
X241113Y166302D01*
X241113Y167707D02*
X235487Y167707D01*
X235487Y169112D02*
X241113Y169112D01*
X241113Y170517D02*
X235487Y170517D01*
X243487Y171713D02*
X243487Y162087D01*
X243487Y171713D02*
X249113Y171713D01*
X249113Y162087D01*
X243487Y162087D01*
X243487Y163492D02*
X249113Y163492D01*
X249113Y164897D02*
X243487Y164897D01*
X243487Y166302D02*
X249113Y166302D01*
X249113Y167707D02*
X243487Y167707D01*
X243487Y169112D02*
X249113Y169112D01*
X249113Y170517D02*
X243487Y170517D01*
X275487Y171713D02*
X275487Y162087D01*
X275487Y171713D02*
X281113Y171713D01*
X281113Y162087D01*
X275487Y162087D01*
X275487Y163492D02*
X281113Y163492D01*
X281113Y164897D02*
X275487Y164897D01*
X275487Y166302D02*
X281113Y166302D01*
X281113Y167707D02*
X275487Y167707D01*
X275487Y169112D02*
X281113Y169112D01*
X281113Y170517D02*
X275487Y170517D01*
X267487Y171713D02*
X267487Y162087D01*
X267487Y171713D02*
X273113Y171713D01*
X273113Y162087D01*
X267487Y162087D01*
X267487Y163492D02*
X273113Y163492D01*
X273113Y164897D02*
X267487Y164897D01*
X267487Y166302D02*
X273113Y166302D01*
X273113Y167707D02*
X267487Y167707D01*
X267487Y169112D02*
X273113Y169112D01*
X273113Y170517D02*
X267487Y170517D01*
X259487Y171713D02*
X259487Y162087D01*
X259487Y171713D02*
X265113Y171713D01*
X265113Y162087D01*
X259487Y162087D01*
X259487Y163492D02*
X265113Y163492D01*
X265113Y164897D02*
X259487Y164897D01*
X259487Y166302D02*
X265113Y166302D01*
X265113Y167707D02*
X259487Y167707D01*
X259487Y169112D02*
X265113Y169112D01*
X265113Y170517D02*
X259487Y170517D01*
X251487Y171713D02*
X251487Y162087D01*
X251487Y171713D02*
X257113Y171713D01*
X257113Y162087D01*
X251487Y162087D01*
X251487Y163492D02*
X257113Y163492D01*
X257113Y164897D02*
X251487Y164897D01*
X251487Y166302D02*
X257113Y166302D01*
X257113Y167707D02*
X251487Y167707D01*
X251487Y169112D02*
X257113Y169112D01*
X257113Y170517D02*
X251487Y170517D01*
X227487Y171713D02*
X227487Y162087D01*
X227487Y171713D02*
X233113Y171713D01*
X233113Y162087D01*
X227487Y162087D01*
X227487Y163492D02*
X233113Y163492D01*
X233113Y164897D02*
X227487Y164897D01*
X227487Y166302D02*
X233113Y166302D01*
X233113Y167707D02*
X227487Y167707D01*
X227487Y169112D02*
X233113Y169112D01*
X233113Y170517D02*
X227487Y170517D01*
X219487Y171713D02*
X219487Y162087D01*
X219487Y171713D02*
X225113Y171713D01*
X225113Y162087D01*
X219487Y162087D01*
X219487Y163492D02*
X225113Y163492D01*
X225113Y164897D02*
X219487Y164897D01*
X219487Y166302D02*
X225113Y166302D01*
X225113Y167707D02*
X219487Y167707D01*
X219487Y169112D02*
X225113Y169112D01*
X225113Y170517D02*
X219487Y170517D01*
X211487Y171713D02*
X211487Y162087D01*
X211487Y171713D02*
X217113Y171713D01*
X217113Y162087D01*
X211487Y162087D01*
X211487Y163492D02*
X217113Y163492D01*
X217113Y164897D02*
X211487Y164897D01*
X211487Y166302D02*
X217113Y166302D01*
X217113Y167707D02*
X211487Y167707D01*
X211487Y169112D02*
X217113Y169112D01*
X217113Y170517D02*
X211487Y170517D01*
X203487Y171713D02*
X203487Y162087D01*
X203487Y171713D02*
X209113Y171713D01*
X209113Y162087D01*
X203487Y162087D01*
X203487Y163492D02*
X209113Y163492D01*
X209113Y164897D02*
X203487Y164897D01*
X203487Y166302D02*
X209113Y166302D01*
X209113Y167707D02*
X203487Y167707D01*
X203487Y169112D02*
X209113Y169112D01*
X209113Y170517D02*
X203487Y170517D01*
X195487Y171713D02*
X195487Y162087D01*
X195487Y171713D02*
X201113Y171713D01*
X201113Y162087D01*
X195487Y162087D01*
X195487Y163492D02*
X201113Y163492D01*
X201113Y164897D02*
X195487Y164897D01*
X195487Y166302D02*
X201113Y166302D01*
X201113Y167707D02*
X195487Y167707D01*
X195487Y169112D02*
X201113Y169112D01*
X201113Y170517D02*
X195487Y170517D01*
X187487Y171713D02*
X187487Y162087D01*
X187487Y171713D02*
X193113Y171713D01*
X193113Y162087D01*
X187487Y162087D01*
X187487Y163492D02*
X193113Y163492D01*
X193113Y164897D02*
X187487Y164897D01*
X187487Y166302D02*
X193113Y166302D01*
X193113Y167707D02*
X187487Y167707D01*
X187487Y169112D02*
X193113Y169112D01*
X193113Y170517D02*
X187487Y170517D01*
X182613Y161713D02*
X172987Y161713D01*
X182613Y161713D02*
X182613Y156087D01*
X172987Y156087D01*
X172987Y161713D01*
X172987Y157492D02*
X182613Y157492D01*
X182613Y158897D02*
X172987Y158897D01*
X172987Y160302D02*
X182613Y160302D01*
X182613Y161707D02*
X172987Y161707D01*
X172987Y153713D02*
X182613Y153713D01*
X182613Y148087D01*
X172987Y148087D01*
X172987Y153713D01*
X172987Y149492D02*
X182613Y149492D01*
X182613Y150897D02*
X172987Y150897D01*
X172987Y152302D02*
X182613Y152302D01*
X182613Y153707D02*
X172987Y153707D01*
X172987Y145713D02*
X182613Y145713D01*
X182613Y140087D01*
X172987Y140087D01*
X172987Y145713D01*
X172987Y141492D02*
X182613Y141492D01*
X182613Y142897D02*
X172987Y142897D01*
X172987Y144302D02*
X182613Y144302D01*
X182613Y145707D02*
X172987Y145707D01*
X172987Y137713D02*
X182613Y137713D01*
X182613Y132087D01*
X172987Y132087D01*
X172987Y137713D01*
X172987Y133492D02*
X182613Y133492D01*
X182613Y134897D02*
X172987Y134897D01*
X172987Y136302D02*
X182613Y136302D01*
X182613Y137707D02*
X172987Y137707D01*
X172987Y129713D02*
X182613Y129713D01*
X182613Y124087D01*
X172987Y124087D01*
X172987Y129713D01*
X172987Y125492D02*
X182613Y125492D01*
X182613Y126897D02*
X172987Y126897D01*
X172987Y128302D02*
X182613Y128302D01*
X182613Y129707D02*
X172987Y129707D01*
X172987Y121713D02*
X182613Y121713D01*
X182613Y116087D01*
X172987Y116087D01*
X172987Y121713D01*
X172987Y117492D02*
X182613Y117492D01*
X182613Y118897D02*
X172987Y118897D01*
X172987Y120302D02*
X182613Y120302D01*
X182613Y121707D02*
X172987Y121707D01*
X172987Y113713D02*
X182613Y113713D01*
X182613Y108087D01*
X172987Y108087D01*
X172987Y113713D01*
X172987Y109492D02*
X182613Y109492D01*
X182613Y110897D02*
X172987Y110897D01*
X172987Y112302D02*
X182613Y112302D01*
X182613Y113707D02*
X172987Y113707D01*
X172987Y105713D02*
X182613Y105713D01*
X182613Y100087D01*
X172987Y100087D01*
X172987Y105713D01*
X172987Y101492D02*
X182613Y101492D01*
X182613Y102897D02*
X172987Y102897D01*
X172987Y104302D02*
X182613Y104302D01*
X182613Y105707D02*
X172987Y105707D01*
X172987Y97713D02*
X182613Y97713D01*
X182613Y92087D01*
X172987Y92087D01*
X172987Y97713D01*
X172987Y93492D02*
X182613Y93492D01*
X182613Y94897D02*
X172987Y94897D01*
X172987Y96302D02*
X182613Y96302D01*
X182613Y97707D02*
X172987Y97707D01*
X172987Y89713D02*
X182613Y89713D01*
X182613Y84087D01*
X172987Y84087D01*
X172987Y89713D01*
X172987Y85492D02*
X182613Y85492D01*
X182613Y86897D02*
X172987Y86897D01*
X172987Y88302D02*
X182613Y88302D01*
X182613Y89707D02*
X172987Y89707D01*
X172987Y81713D02*
X182613Y81713D01*
X182613Y76087D01*
X172987Y76087D01*
X172987Y81713D01*
X172987Y77492D02*
X182613Y77492D01*
X182613Y78897D02*
X172987Y78897D01*
X172987Y80302D02*
X182613Y80302D01*
X182613Y81707D02*
X172987Y81707D01*
X172987Y73713D02*
X182613Y73713D01*
X182613Y68087D01*
X172987Y68087D01*
X172987Y73713D01*
X172987Y69492D02*
X182613Y69492D01*
X182613Y70897D02*
X172987Y70897D01*
X172987Y72302D02*
X182613Y72302D01*
X182613Y73707D02*
X172987Y73707D01*
X187487Y67713D02*
X187487Y58087D01*
X187487Y67713D02*
X193113Y67713D01*
X193113Y58087D01*
X187487Y58087D01*
X187487Y59492D02*
X193113Y59492D01*
X193113Y60897D02*
X187487Y60897D01*
X187487Y62302D02*
X193113Y62302D01*
X193113Y63707D02*
X187487Y63707D01*
X187487Y65112D02*
X193113Y65112D01*
X193113Y66517D02*
X187487Y66517D01*
X195487Y67713D02*
X195487Y58087D01*
X195487Y67713D02*
X201113Y67713D01*
X201113Y58087D01*
X195487Y58087D01*
X195487Y59492D02*
X201113Y59492D01*
X201113Y60897D02*
X195487Y60897D01*
X195487Y62302D02*
X201113Y62302D01*
X201113Y63707D02*
X195487Y63707D01*
X195487Y65112D02*
X201113Y65112D01*
X201113Y66517D02*
X195487Y66517D01*
X203487Y67713D02*
X203487Y58087D01*
X203487Y67713D02*
X209113Y67713D01*
X209113Y58087D01*
X203487Y58087D01*
X203487Y59492D02*
X209113Y59492D01*
X209113Y60897D02*
X203487Y60897D01*
X203487Y62302D02*
X209113Y62302D01*
X209113Y63707D02*
X203487Y63707D01*
X203487Y65112D02*
X209113Y65112D01*
X209113Y66517D02*
X203487Y66517D01*
X211487Y67713D02*
X211487Y58087D01*
X211487Y67713D02*
X217113Y67713D01*
X217113Y58087D01*
X211487Y58087D01*
X211487Y59492D02*
X217113Y59492D01*
X217113Y60897D02*
X211487Y60897D01*
X211487Y62302D02*
X217113Y62302D01*
X217113Y63707D02*
X211487Y63707D01*
X211487Y65112D02*
X217113Y65112D01*
X217113Y66517D02*
X211487Y66517D01*
X219487Y67713D02*
X219487Y58087D01*
X219487Y67713D02*
X225113Y67713D01*
X225113Y58087D01*
X219487Y58087D01*
X219487Y59492D02*
X225113Y59492D01*
X225113Y60897D02*
X219487Y60897D01*
X219487Y62302D02*
X225113Y62302D01*
X225113Y63707D02*
X219487Y63707D01*
X219487Y65112D02*
X225113Y65112D01*
X225113Y66517D02*
X219487Y66517D01*
X227487Y67713D02*
X227487Y58087D01*
X227487Y67713D02*
X233113Y67713D01*
X233113Y58087D01*
X227487Y58087D01*
X227487Y59492D02*
X233113Y59492D01*
X233113Y60897D02*
X227487Y60897D01*
X227487Y62302D02*
X233113Y62302D01*
X233113Y63707D02*
X227487Y63707D01*
X227487Y65112D02*
X233113Y65112D01*
X233113Y66517D02*
X227487Y66517D01*
X235487Y67713D02*
X235487Y58087D01*
X235487Y67713D02*
X241113Y67713D01*
X241113Y58087D01*
X235487Y58087D01*
X235487Y59492D02*
X241113Y59492D01*
X241113Y60897D02*
X235487Y60897D01*
X235487Y62302D02*
X241113Y62302D01*
X241113Y63707D02*
X235487Y63707D01*
X235487Y65112D02*
X241113Y65112D01*
X241113Y66517D02*
X235487Y66517D01*
X243487Y67713D02*
X243487Y58087D01*
X243487Y67713D02*
X249113Y67713D01*
X249113Y58087D01*
X243487Y58087D01*
X243487Y59492D02*
X249113Y59492D01*
X249113Y60897D02*
X243487Y60897D01*
X243487Y62302D02*
X249113Y62302D01*
X249113Y63707D02*
X243487Y63707D01*
X243487Y65112D02*
X249113Y65112D01*
X249113Y66517D02*
X243487Y66517D01*
X251487Y67713D02*
X251487Y58087D01*
X251487Y67713D02*
X257113Y67713D01*
X257113Y58087D01*
X251487Y58087D01*
X251487Y59492D02*
X257113Y59492D01*
X257113Y60897D02*
X251487Y60897D01*
X251487Y62302D02*
X257113Y62302D01*
X257113Y63707D02*
X251487Y63707D01*
X251487Y65112D02*
X257113Y65112D01*
X257113Y66517D02*
X251487Y66517D01*
X259487Y67713D02*
X259487Y58087D01*
X259487Y67713D02*
X265113Y67713D01*
X265113Y58087D01*
X259487Y58087D01*
X259487Y59492D02*
X265113Y59492D01*
X265113Y60897D02*
X259487Y60897D01*
X259487Y62302D02*
X265113Y62302D01*
X265113Y63707D02*
X259487Y63707D01*
X259487Y65112D02*
X265113Y65112D01*
X265113Y66517D02*
X259487Y66517D01*
X267487Y67713D02*
X267487Y58087D01*
X267487Y67713D02*
X273113Y67713D01*
X273113Y58087D01*
X267487Y58087D01*
X267487Y59492D02*
X273113Y59492D01*
X273113Y60897D02*
X267487Y60897D01*
X267487Y62302D02*
X273113Y62302D01*
X273113Y63707D02*
X267487Y63707D01*
X267487Y65112D02*
X273113Y65112D01*
X273113Y66517D02*
X267487Y66517D01*
X275487Y67713D02*
X275487Y58087D01*
X275487Y67713D02*
X281113Y67713D01*
X281113Y58087D01*
X275487Y58087D01*
X275487Y59492D02*
X281113Y59492D01*
X281113Y60897D02*
X275487Y60897D01*
X275487Y62302D02*
X281113Y62302D01*
X281113Y63707D02*
X275487Y63707D01*
X275487Y65112D02*
X281113Y65112D01*
X281113Y66517D02*
X275487Y66517D01*
D11*
X234300Y87900D03*
X234300Y114900D03*
X234300Y141900D03*
X207300Y114900D03*
X207300Y141900D03*
X261300Y114900D03*
X261300Y141900D03*
X207300Y87900D03*
D12*
X329300Y75520D03*
X329300Y60280D03*
X314400Y75520D03*
X314400Y60280D03*
X164200Y102780D03*
X164200Y118020D03*
X309300Y106120D03*
X309300Y90880D03*
X324600Y106520D03*
X324600Y91280D03*
X306300Y122480D03*
X306300Y137720D03*
X321400Y122580D03*
X321400Y137820D03*
X336900Y122380D03*
X336900Y137620D03*
X164420Y87400D03*
X149180Y87400D03*
X243500Y33580D03*
X243500Y48820D03*
X134780Y151000D03*
X150020Y151000D03*
X165400Y150880D03*
X165400Y166120D03*
X119700Y150920D03*
X119700Y135680D03*
D13*
X83700Y252300D03*
D14*
X83700Y277700D03*
X109100Y252300D03*
X109100Y277700D03*
X134500Y252300D03*
X134500Y277700D03*
X159900Y252300D03*
X159900Y277700D03*
X185300Y252300D03*
X185300Y277700D03*
X210700Y252300D03*
X210700Y277700D03*
X236100Y252300D03*
X236100Y277700D03*
X261500Y252300D03*
X261500Y277700D03*
X286900Y252300D03*
X286900Y277700D03*
X312300Y252300D03*
X312300Y277700D03*
X337700Y252300D03*
X337700Y277700D03*
X363100Y252300D03*
X363100Y277700D03*
X388500Y252300D03*
X388500Y277700D03*
X413900Y252300D03*
X413900Y277700D03*
X439300Y252300D03*
X439300Y277700D03*
X464700Y252300D03*
X464700Y277700D03*
X490100Y252300D03*
X490100Y277700D03*
X515500Y252300D03*
X515500Y277700D03*
X540900Y252300D03*
X540900Y277700D03*
X566300Y252300D03*
X566300Y277700D03*
D15*
X35000Y35000D03*
X35000Y265000D03*
X615000Y35000D03*
X615000Y265000D03*
D16*
X25300Y128700D03*
D17*
X25300Y154100D03*
D16*
X25300Y179500D03*
D12*
X491720Y136400D03*
X476480Y136400D03*
X462180Y219800D03*
X477420Y219800D03*
D18*
X456940Y201700D03*
X477260Y201700D03*
D19*
X476300Y156599D03*
X485800Y156599D03*
X495300Y156599D03*
X495300Y182601D03*
X476300Y182601D03*
D12*
X495500Y213020D03*
X495500Y197780D03*
D20*
X82800Y19400D03*
D21*
X102800Y19400D03*
X122800Y19400D03*
X142800Y19400D03*
D12*
X142420Y40900D03*
X127180Y40900D03*
X98320Y40800D03*
X83080Y40800D03*
D22*
X410000Y48000D03*
X403500Y48000D03*
X416500Y48000D03*
X423000Y48000D03*
X397000Y48000D03*
D23*
X385000Y43000D03*
X435000Y43000D03*
D24*
X380500Y20000D03*
X439500Y20000D03*
D12*
X403800Y65780D03*
X403800Y81020D03*
X433920Y71200D03*
X418680Y71200D03*
D25*
X468500Y95800D03*
X459000Y117800D03*
X478000Y117800D03*
D26*
X468500Y48300D03*
X478000Y48300D03*
X487500Y48300D03*
X487500Y76300D03*
X478000Y76300D03*
X468500Y76300D03*
D12*
X500400Y55120D03*
X500400Y39880D03*
X506020Y117700D03*
X490780Y117700D03*
D27*
X535750Y97500D03*
X529250Y97500D03*
X522750Y97500D03*
X516250Y97500D03*
X516250Y56500D03*
X522750Y56500D03*
X529250Y56500D03*
X535750Y56500D03*
D12*
X547680Y55500D03*
X562920Y55500D03*
X560580Y40200D03*
X575820Y40200D03*
X549180Y70500D03*
X564420Y70500D03*
X576120Y25000D03*
X560880Y25000D03*
X564520Y97400D03*
X549280Y97400D03*
X549380Y112900D03*
X564620Y112900D03*
X515000Y38520D03*
X515000Y23280D03*
X500120Y25600D03*
X484880Y25600D03*
X484880Y11700D03*
X500120Y11700D03*
X530280Y39900D03*
X545520Y39900D03*
D28*
X615900Y83300D03*
X615900Y118300D03*
D12*
X518300Y156120D03*
X518300Y140880D03*
D29*
X574155Y127750D03*
X574155Y134250D03*
X574155Y140750D03*
X574155Y147250D03*
X530845Y147250D03*
X530845Y140750D03*
X530845Y134250D03*
X530845Y127750D03*
D12*
X278320Y50300D03*
X263080Y50300D03*
X198800Y20300D03*
X198800Y35300D03*
X214000Y33080D03*
X214000Y48320D03*
D30*
X401064Y113814D02*
X401064Y123586D01*
X406336Y123586D01*
X406336Y113814D01*
X401064Y113814D01*
X401064Y116073D02*
X406336Y116073D01*
X406336Y118332D02*
X401064Y118332D01*
X401064Y120591D02*
X406336Y120591D01*
X406336Y122850D02*
X401064Y122850D01*
X401064Y100586D02*
X401064Y90814D01*
X401064Y100586D02*
X406336Y100586D01*
X406336Y90814D01*
X401064Y90814D01*
X401064Y93073D02*
X406336Y93073D01*
X406336Y95332D02*
X401064Y95332D01*
X401064Y97591D02*
X406336Y97591D01*
X406336Y99850D02*
X401064Y99850D01*
X420264Y100586D02*
X420264Y90814D01*
X420264Y100586D02*
X425536Y100586D01*
X425536Y90814D01*
X420264Y90814D01*
X420264Y93073D02*
X425536Y93073D01*
X425536Y95332D02*
X420264Y95332D01*
X420264Y97591D02*
X425536Y97591D01*
X425536Y99850D02*
X420264Y99850D01*
D31*
X418689Y114489D02*
X418689Y122911D01*
X427111Y122911D01*
X427111Y114489D01*
X418689Y114489D01*
X418689Y118098D02*
X427111Y118098D01*
X427111Y121707D02*
X418689Y121707D01*
D12*
X420980Y135600D03*
X436220Y135600D03*
X403620Y167000D03*
X388380Y167000D03*
X388080Y136700D03*
X403320Y136700D03*
D25*
X426800Y173900D03*
X436300Y151900D03*
X417300Y151900D03*
D12*
X388080Y151800D03*
X403320Y151800D03*
X557120Y186600D03*
X541880Y186600D03*
X589700Y184680D03*
X589700Y199920D03*
D10*
X558863Y206987D02*
X550037Y206987D01*
X550037Y212613D01*
X558863Y212613D01*
X558863Y206987D01*
X558863Y208392D02*
X550037Y208392D01*
X550037Y209797D02*
X558863Y209797D01*
X558863Y211202D02*
X550037Y211202D01*
X550037Y212607D02*
X558863Y212607D01*
X558863Y216987D02*
X550037Y216987D01*
X550037Y222613D01*
X558863Y222613D01*
X558863Y216987D01*
X558863Y218392D02*
X550037Y218392D01*
X550037Y219797D02*
X558863Y219797D01*
X558863Y221202D02*
X550037Y221202D01*
X550037Y222607D02*
X558863Y222607D01*
X558863Y196987D02*
X550037Y196987D01*
X550037Y202613D01*
X558863Y202613D01*
X558863Y196987D01*
X558863Y198392D02*
X550037Y198392D01*
X550037Y199797D02*
X558863Y199797D01*
X558863Y201202D02*
X550037Y201202D01*
X550037Y202607D02*
X558863Y202607D01*
X571937Y196987D02*
X580763Y196987D01*
X571937Y196987D02*
X571937Y202613D01*
X580763Y202613D01*
X580763Y196987D01*
X580763Y198392D02*
X571937Y198392D01*
X571937Y199797D02*
X580763Y199797D01*
X580763Y201202D02*
X571937Y201202D01*
X571937Y202607D02*
X580763Y202607D01*
X580763Y206987D02*
X571937Y206987D01*
X571937Y212613D01*
X580763Y212613D01*
X580763Y206987D01*
X580763Y208392D02*
X571937Y208392D01*
X571937Y209797D02*
X580763Y209797D01*
X580763Y211202D02*
X571937Y211202D01*
X571937Y212607D02*
X580763Y212607D01*
X580763Y216987D02*
X571937Y216987D01*
X571937Y222613D01*
X580763Y222613D01*
X580763Y216987D01*
X580763Y218392D02*
X571937Y218392D01*
X571937Y219797D02*
X580763Y219797D01*
X580763Y221202D02*
X571937Y221202D01*
X571937Y222607D02*
X580763Y222607D01*
D32*
X382713Y217313D02*
X375887Y217313D01*
X382713Y217313D02*
X382713Y212487D01*
X375887Y212487D01*
X375887Y217313D01*
X375887Y213692D02*
X382713Y213692D01*
X382713Y214897D02*
X375887Y214897D01*
X375887Y216102D02*
X382713Y216102D01*
X382713Y217307D02*
X375887Y217307D01*
X375887Y211313D02*
X382713Y211313D01*
X382713Y206487D01*
X375887Y206487D01*
X375887Y211313D01*
X375887Y207692D02*
X382713Y207692D01*
X382713Y208897D02*
X375887Y208897D01*
X375887Y210102D02*
X382713Y210102D01*
X382713Y211307D02*
X375887Y211307D01*
X375887Y205313D02*
X382713Y205313D01*
X382713Y200487D01*
X375887Y200487D01*
X375887Y205313D01*
X375887Y201692D02*
X382713Y201692D01*
X382713Y202897D02*
X375887Y202897D01*
X375887Y204102D02*
X382713Y204102D01*
X382713Y205307D02*
X375887Y205307D01*
X375887Y199313D02*
X382713Y199313D01*
X382713Y194487D01*
X375887Y194487D01*
X375887Y199313D01*
X375887Y195692D02*
X382713Y195692D01*
X382713Y196897D02*
X375887Y196897D01*
X375887Y198102D02*
X382713Y198102D01*
X382713Y199307D02*
X375887Y199307D01*
X375887Y193313D02*
X382713Y193313D01*
X382713Y188487D01*
X375887Y188487D01*
X375887Y193313D01*
X375887Y189692D02*
X382713Y189692D01*
X382713Y190897D02*
X375887Y190897D01*
X375887Y192102D02*
X382713Y192102D01*
X382713Y193307D02*
X375887Y193307D01*
X396887Y193313D02*
X403713Y193313D01*
X403713Y188487D01*
X396887Y188487D01*
X396887Y193313D01*
X396887Y189692D02*
X403713Y189692D01*
X403713Y190897D02*
X396887Y190897D01*
X396887Y192102D02*
X403713Y192102D01*
X403713Y193307D02*
X396887Y193307D01*
X396887Y199313D02*
X403713Y199313D01*
X403713Y194487D01*
X396887Y194487D01*
X396887Y199313D01*
X396887Y195692D02*
X403713Y195692D01*
X403713Y196897D02*
X396887Y196897D01*
X396887Y198102D02*
X403713Y198102D01*
X403713Y199307D02*
X396887Y199307D01*
X396887Y205313D02*
X403713Y205313D01*
X403713Y200487D01*
X396887Y200487D01*
X396887Y205313D01*
X396887Y201692D02*
X403713Y201692D01*
X403713Y202897D02*
X396887Y202897D01*
X396887Y204102D02*
X403713Y204102D01*
X403713Y205307D02*
X396887Y205307D01*
X396887Y211313D02*
X403713Y211313D01*
X403713Y206487D01*
X396887Y206487D01*
X396887Y211313D01*
X396887Y207692D02*
X403713Y207692D01*
X403713Y208897D02*
X396887Y208897D01*
X396887Y210102D02*
X403713Y210102D01*
X403713Y211307D02*
X396887Y211307D01*
X396887Y217313D02*
X403713Y217313D01*
X403713Y212487D01*
X396887Y212487D01*
X396887Y217313D01*
X396887Y213692D02*
X403713Y213692D01*
X403713Y214897D02*
X396887Y214897D01*
X396887Y216102D02*
X403713Y216102D01*
X403713Y217307D02*
X396887Y217307D01*
D10*
X394113Y205713D02*
X385487Y205713D01*
X394113Y205713D02*
X394113Y200087D01*
X385487Y200087D01*
X385487Y205713D01*
X385487Y201492D02*
X394113Y201492D01*
X394113Y202897D02*
X385487Y202897D01*
X385487Y204302D02*
X394113Y204302D01*
X394113Y205707D02*
X385487Y205707D01*
D12*
X367620Y215200D03*
X352380Y215200D03*
X343180Y195600D03*
X358420Y195600D03*
X421200Y196780D03*
X421200Y212020D03*
D33*
X617100Y160700D03*
D34*
X617100Y186100D03*
X617100Y211500D03*
D12*
X537620Y205000D03*
X522380Y205000D03*
X537620Y220000D03*
X522380Y220000D03*
D35*
X337300Y90600D03*
X350000Y131300D03*
X342000Y61100D03*
X568300Y190400D03*
X500200Y68100D03*
X338800Y223400D03*
X189300Y223500D03*
X451400Y86000D03*
X519100Y117400D03*
X441800Y105700D03*
X380100Y115900D03*
X365000Y85900D03*
X261800Y36700D03*
X243400Y20300D03*
X185700Y20100D03*
X160600Y58300D03*
X164800Y138100D03*
X154800Y138100D03*
X144800Y138100D03*
X134800Y138100D03*
X106800Y139100D03*
X96800Y139100D03*
X86800Y140100D03*
X75800Y140100D03*
X64800Y139100D03*
X53800Y139100D03*
X54800Y169100D03*
X64800Y169100D03*
X74800Y169100D03*
X84800Y169100D03*
X94800Y169100D03*
X104800Y169100D03*
X114800Y169100D03*
X124800Y169100D03*
X134800Y169100D03*
X144100Y164200D03*
X153400Y164100D03*
X120600Y58300D03*
X563200Y83900D03*
X540600Y26100D03*
X471000Y12300D03*
X505100Y141800D03*
X447600Y123400D03*
X507400Y215200D03*
X590300Y219900D03*
X461700Y232800D03*
X406000Y179000D03*
X359000Y159000D03*
X589000Y239000D03*
X573700Y157500D03*
X288700Y27500D03*
X358700Y17500D03*
X447200Y63700D03*
X537300Y110300D03*
X195300Y201000D03*
X477900Y62200D03*
X530000Y25000D03*
D36*
X447468Y170000D03*
X477500Y232500D03*
X361300Y123500D03*
X354080Y106520D03*
X278400Y36100D03*
D35*
X170000Y48218D03*
X110000Y48218D03*
X230000Y201282D03*
X237700Y194500D03*
X229559Y34436D03*
X185000Y35000D03*
X225000Y45000D03*
X112600Y37700D03*
X162218Y33218D03*
X177782Y28218D03*
X198800Y187800D03*
X515000Y170000D03*
X190000Y180000D03*
X526200Y171400D03*
X363900Y66700D03*
X385000Y95000D03*
X363900Y53000D03*
X392500Y118700D03*
D36*
X390000Y65000D03*
X422800Y84000D03*
D35*
X200000Y50000D03*
X185000Y205000D03*
X340000Y175000D03*
X360000Y175000D03*
X555000Y230000D03*
X385000Y178218D03*
X565000Y230000D03*
X374845Y178782D03*
X185800Y50000D03*
X340600Y184564D03*
X365503Y184497D03*
X175000Y205000D03*
X205582Y180000D03*
X370000Y159218D03*
X375000Y130000D03*
X460000Y35000D03*
X246800Y178500D03*
X305000Y154000D03*
X320000Y154000D03*
X375000Y150000D03*
X370518Y203009D03*
X340800Y207700D03*
X254287Y190713D03*
X410000Y215000D03*
X270000Y196782D03*
X262300Y185200D03*
X415000Y185000D03*
M02*
